<svg width="135" height="135" viewBox="0 0 135 135" fill="none" xmlns="http://www.w3.org/2000/svg">
<circle cx="67.5" cy="67.5" r="67.5" fill="#C5F1FF"/>
<g clip-path="url(#clip0)">
<circle cx="67.5" cy="67.5" r="64" fill="#5383FF"/>
<path d="M61.9378 18C64.6321 13.3333 71.3679 13.3333 74.0622 18L115.198 89.25C117.893 93.9167 114.525 99.75 109.136 99.75H26.8638C21.4752 99.75 18.1073 93.9167 20.8016 89.25L61.9378 18Z" fill="#366EFF"/>
<path d="M45.8 77.5L47.24 72.43V68.62L49.46 67.72L53.36 56.29H61.13L65.96 69.73L68.27 73.99V77.5H62.96L61.46 72.7H52.73L51.44 77.5H45.8ZM54.71 68.08H59.81L57.53 61.21H56.9L54.71 68.08ZM70.9566 77.5V61.09L70.3566 58.06L70.9566 56.26H80.5566C82.0166 56.26 83.3266 56.49 84.4866 56.95C85.6666 57.39 86.5966 58.15 87.2766 59.23C87.9766 60.29 88.3266 61.76 88.3266 63.64C88.3266 65.52 87.9566 67.01 87.2166 68.11C86.4766 69.19 85.4466 69.96 84.1266 70.42C82.8266 70.88 81.3366 71.11 79.6566 71.11H76.3566V72.67L76.6566 75.67L76.3566 77.5H70.9566ZM76.3566 66.4H79.2966C80.3366 66.4 81.1666 66.21 81.7866 65.83C82.4066 65.43 82.7166 64.7 82.7166 63.64C82.7166 62.9 82.5666 62.35 82.2666 61.99C81.9666 61.61 81.5466 61.36 81.0066 61.24C80.4866 61.12 79.8766 61.06 79.1766 61.06H76.0566L76.3566 66.4Z" fill="white"/>
</g>
<defs>
<clipPath id="clip0">
<rect width="128" height="128" fill="white" transform="translate(3.5 3.5)"/>
</clipPath>
</defs>
</svg>
